<svg width="64" height="64" viewBox="0 0 64 64" fill="none" xmlns="http://www.w3.org/2000/svg">
  <rect width="64" height="64" rx="8" fill="#8B4513"/>
  <rect x="10" y="10" width="44" height="44" rx="4" fill="#D2691E"/>
  <path d="M32 14C35.1826 14 38.2348 15.2643 40.4853 17.5147C42.7357 19.7652 44 22.8174 44 26C44 29.1826 42.7357 32.2348 40.4853 34.4853C38.2348 36.7357 35.1826 38 32 38C28.8174 38 25.7652 36.7357 23.5147 34.4853C21.2643 32.2348 20 29.1826 20 26C20 22.8174 21.2643 19.7652 23.5147 17.5147C25.7652 15.2643 28.8174 14 32 14Z" fill="#FFD700"/>
  <path d="M32 22C33.0609 22 34.0783 22.4214 34.8284 23.1716C35.5786 23.9217 36 24.9391 36 26C36 27.0609 35.5786 28.0783 34.8284 28.8284C34.0783 29.5786 33.0609 30 32 30C30.9391 30 29.9217 29.5786 29.1716 28.8284C28.4214 28.0783 28 27.0609 28 26C28 24.9391 28.4214 23.9217 29.1716 23.1716C29.9217 22.4214 30.9391 22 32 22Z" fill="#FFFFFF"/>
  <path d="M20 42C20 42 24 46 32 46C40 46 44 42 44 42" stroke="#FFFFFF" stroke-width="2" stroke-linecap="round"/>
</svg>